# xmcd
#
# Track frame offsets: 
#        150
#        16300
#        35425
#        49875
#        77262
#        97525
#        123475
#        140700
#        158225
#        183400
#        205012
#        219387
#        236837
#        254787
#        276137
#        288937
#
# Disc length: 4050 seconds
#
# Revision: 4
# Processed by: cddbd v1.5.2PL0 Copyright (c) Steve Scherf et al.
# Submitted via: ExactAudioCopyFreeDBPlugin 1.0
#
DISCID=df0fd010
DTITLE=Charlie Daniels Band - The Best Of Vol. 1
DYEAR=1990
DGENRE=Country
TTITLE0=The Devil Went Down To Georgia (1979)
TTITLE1=The Legend Of Wooley Swamp (1980)
TTITLE2=Willie Jones (1975)
TTITLE3=It's My Life (1976)
TTITLE4=South Sea Dog (1980)
TTITLE5=Billy The Kid (1976)
TTITLE6=Carolina (1976)
TTITLE7=Behind Your Eyes (1979)
TTITLE8=Sweetwater Texas (1976)
TTITLE9=Blowing Along With The Wind (1982)
TTITLE10=Mississippi (1979)
TTITLE11=Still In Saigon (1982)
TTITLE12=The South's Gonna Do It Again (1974)
TTITLE13=Talking To The Moon (1985)
TTITLE14=Stroker's Theme (1973)
TTITLE15=In America (1980)
EXTD=YEAR: 1990
EXTT0=
EXTT1=
EXTT2=
EXTT3=
EXTT4=
EXTT5=
EXTT6=
EXTT7=
EXTT8=
EXTT9=
EXTT10=
EXTT11=
EXTT12=
EXTT13=
EXTT14=
EXTT15=
PLAYORDER=
